<svg xmlns="http://www.w3.org/2000/svg" version="1.0" width="641.000000pt" height="641.000000pt" viewBox="0 0 641.000000 641.000000" preserveAspectRatio="xMidYMid meet">
<metadata>
Created by potrace 1.11, written by Peter Selinger 2001-2013
</metadata>
<g transform="translate(0.000000,641.000000) scale(0.100000,-0.100000)" fill="#000000" stroke="none">
<path d="M2830 6395 c-896 -112 -1667 -561 -2203 -1284 -331 -445 -543 -1004 -598 -1575 -17 -177 -6 -597 19 -761 100 -639 365 -1199 791 -1672 162 -179 380 -368 579 -501 l82 -55 0 -274 0 -273 1650 0 1650 0 0 243 0 243 96 60 c53 32 151 100 217 150 675 507 1107 1233 1239 2079 25 164 36 584 19 761 -74 761 -399 1438 -947 1975 -482 470 -1074 764 -1759 871 -172 27 -659 34 -835 13z"/>
</g>
</svg>